<svg width="43" height="36" viewBox="0 0 43 36" fill="none" xmlns="http://www.w3.org/2000/svg">
<path d="M37.7111 0.000521157C36.5512 -0.0167157 33.8568 0.378855 29.3582 3.40353C26.9063 2.78795 24.2976 2.48418 21.6844 2.48418C18.8092 2.48418 15.9036 2.85096 13.1939 3.5977C6.73518 -0.828675 3.88436 0.0784207 3.88436 0.0784207C2.02324 4.7539 3.17333 8.2155 3.52289 9.0752C1.33541 11.4469 0 14.4754 0 18.1872C0 20.9894 0.31748 23.5028 1.09313 25.6876C1.13615 25.8563 1.1222 25.8187 1.19468 25.963C1.36556 26.4153 1.55556 26.8543 1.76911 27.2784C1.84229 27.4309 1.9089 27.5439 1.9089 27.5439C4.08932 31.6269 8.38765 34.2644 16.0354 35.0926L27.6022 35.1057C35.7582 34.2932 39.6719 31.6479 41.4753 27.5373L41.59 27.2696C41.7609 26.8543 41.9098 26.4223 42.3173 24.968C42.7247 23.5137 42.907 20.995 42.907 18.1861C42.907 14.1575 41.4009 10.9341 38.9549 8.48167C39.3824 7.0957 39.9533 4.0177 38.3849 0.0772973C38.3849 0.0772973 38.165 0.00726145 37.7111 0.000486052L37.7111 0.000521157ZM28.5959 14.7842C30.4792 14.7801 32.0924 15.1049 33.3036 16.3814V16.3825C34.8192 17.9813 35.7061 19.9115 35.7061 21.9916C35.7061 31.7039 29.4882 31.9681 21.8188 31.9681C14.148 31.9681 7.93144 30.6223 7.93144 21.9916C7.93144 19.9253 8.80539 18.0066 10.3022 16.4143C12.7991 13.7607 17.0245 15.1659 21.8188 15.1659C24.2798 15.1655 26.5911 14.7885 28.596 14.7841L28.5959 14.7842ZM14.3099 17.6442C12.7141 17.6442 11.4204 19.8116 11.4204 22.4865C11.4204 25.1618 12.714 27.3299 14.3099 27.3299C15.9058 27.3299 17.1995 25.1618 17.1995 22.4865C17.1995 19.812 15.9058 17.6461 14.3099 17.6442ZM29.8135 17.6442C28.2176 17.6442 26.9239 19.8116 26.9239 22.4865C26.9239 25.1618 28.2176 27.3299 29.8135 27.3299C31.4093 27.3299 32.703 25.1618 32.703 22.4865C32.703 19.812 31.4093 17.6461 29.8135 17.6442Z" fill="black"/>
</svg>
