<svg width="46" height="36" viewBox="0 0 46 36" fill="none" xmlns="http://www.w3.org/2000/svg">
<path d="M45.1909 4.27026C43.5624 4.99188 41.813 5.47945 39.9738 5.69984C41.8715 4.56435 43.2912 2.77722 43.9681 0.671921C42.1852 1.73092 40.2339 2.47635 38.199 2.87578C36.8307 1.41473 35.0182 0.44632 33.043 0.120905C31.0679 -0.20451 29.0405 0.131276 27.2758 1.07613C25.511 2.02098 24.1075 3.52204 23.2833 5.34626C22.4591 7.17047 22.2601 9.21578 22.7174 11.1646C19.1048 10.9832 15.5707 10.0443 12.3445 8.40865C9.11827 6.77302 6.27201 4.47731 3.99045 1.67048C3.21032 3.0162 2.76175 4.57646 2.76175 6.23813C2.76088 7.73401 3.12925 9.20699 3.83419 10.5264C4.53912 11.8457 5.55882 12.9707 6.80281 13.8015C5.36011 13.7556 3.94925 13.3657 2.68764 12.6644V12.7814C2.68749 14.8795 3.41322 16.913 4.74168 18.5368C6.07014 20.1607 7.91951 21.2749 9.97598 21.6905C8.63764 22.0527 7.23449 22.1061 5.87251 21.8465C6.45272 23.6518 7.58293 25.2304 9.1049 26.3614C10.6269 27.4924 12.4644 28.1191 14.3603 28.1539C11.1419 30.6803 7.1673 32.0508 3.07575 32.0447C2.35098 32.0449 1.62681 32.0026 0.906998 31.918C5.06015 34.5883 9.89473 36.0055 14.8323 36C31.5465 36 40.6837 22.1566 40.6837 10.1505C40.6837 9.7604 40.674 9.36644 40.6564 8.97637C42.4337 7.69107 43.9679 6.09945 45.187 4.27611L45.1909 4.27026Z" fill="black"/>
</svg>
